:FULLY-SPECIFIED
:FORCE-ALL-JOINTS-BE-3DOF
:DEGREES
985
root 1.11542 15.153 32.4948 5.37809 -4.67268 364.124
lfemur 8.69963 1.76851 5.16666
ltibia 3.49861e-14 0 0
lfoot -30.105 -11.7143 0
ltoes -33.8762 0 0
rfemur -32.9601 -15.4958 -6.26304
rtibia 50.8354 0 0
rfoot -22.6051 4.99797 0
rtoes -41.8972 0 0
lowerback -1.55952 -0.419402 0.711649
upperback -0.71732 -0.562807 -5.90918
thorax 0.0696762 -0.297417 -6.54228
lowerneck -6.66561 1.13655 5.87464
upperneck 1.06765 0.934706 3.32563
head 1.46878 0.569495 0.0806115
lclavicle -1.19271e-15 -1.90833e-14 0
lhumerus -58.3302 -45.1106 114.756
lradius 55.0431 0 0
lwrist 25.17 0 0
lhand 37.2967 24.4826 0
lfingers 7.12502 0 0
lthumb 60.119 38.1373 0
rclavicle -1.19271e-15 -1.90833e-14 0
rhumerus 3.74617 -25.0279 -0.173623
rradius 28.014 0 0
rwrist -11.3028 0 0
rhand -31.4609 -44.6274 0
rfingers 7.12502 0 0
rthumb -4.72817 -794.555 0
986
root 1.11629 15.1532 32.4939 5.36481 -4.64153 4.10887
lfemur 8.69506 1.7358 5.18203
ltibia 3.36673e-14 -0 0
lfoot -30.1062 -11.6972 -7.28549e-06
ltoes -33.8895 0 0
rfemur -32.9242 -15.5067 -6.25659
rtibia 50.8202 -0 0
rfoot -22.5959 4.99843 1.48782e-06
rtoes -41.9028 0 0
lowerback -1.55767 -0.411866 0.698749
upperback -0.7126 -0.552275 -5.911
thorax 0.0747899 -0.291896 -6.53662
lowerneck -6.6785 1.13042 5.88649
upperneck 1.0832 0.923634 3.3318
head 1.47604 0.564863 0.0802448
lclavicle -1.10301e-15 -1.88894e-14 -6.07209e-33
lhumerus -58.3387 -45.147 114.77
lradius 55.0603 -0 0
lwrist 25.1719 0 0
lhand 37.2967 24.496 -1.25653e-07
lfingers 7.12502 -0 0
lthumb 60.119 38.1507 -1.14458e-07
rclavicle -1.10301e-15 -1.88894e-14 -6.07209e-33
rhumerus 3.72044 -24.999 -0.163304
rradius 28.0033 -0 0
rwrist -11.2731 0 0
rhand -31.4416 -44.58 0.000319054
rfingers 7.12502 -0 0
rthumb -4.70954 -74.508 0.000305751
987
root 1.11716 15.1533 32.4929 5.35152 -4.61039 4.09372
lfemur 8.69049 1.7031 5.1974
ltibia 3.23486e-14 -0 0
lfoot -30.1074 -11.6801 -1.42067e-05
ltoes -33.9027 0 0
rfemur -32.8884 -15.5176 -6.25014
rtibia 50.805 -0 0
rfoot -22.5867 4.9989 2.90125e-06
rtoes -41.9083 0 0
lowerback -1.55583 -0.404329 0.68585
upperback -0.707881 -0.541743 -5.91283
thorax 0.0799042 -0.286376 -6.53095
lowerneck -6.6914 1.12429 5.89834
upperneck 1.09874 0.912561 3.33796
head 1.4833 0.56023 0.0798775
lclavicle -1.01332e-15 -1.86954e-14 -1.18406e-32
lhumerus -58.3472 -45.1834 114.784
lradius 55.0774 -0 0
lwrist 25.1737 0 0
lhand 37.2966 24.5094 -2.45023e-07
lfingers 7.12502 -0 0
lthumb 60.119 38.1642 -2.23194e-07
rclavicle -1.01332e-15 -1.86954e-14 -1.18406e-32
rhumerus 3.69471 -24.9701 -0.153001
rradius 27.9926 -0 0
rwrist -11.2434 0 0
rhand -31.4223 -44.5327 0.00062216
rfingers 7.12502 -0 0
rthumb -4.6909 -74.461 0.000596219
988
root 1.11803 15.1535 32.492 5.33822 -4.57925 4.07858
lfemur 8.68591 1.67039 5.21277
ltibia 3.10298e-14 -0 0
lfoot -30.1087 -11.663 -2.07637e-05
ltoes -33.916 0 0
rfemur -32.8525 -15.5286 -6.2437
rtibia 50.7898 -0 0
rfoot -22.5775 4.99936 4.24029e-06
rtoes -41.9139 0 0
lowerback -1.55398 -0.396792 0.672951
upperback -0.703162 -0.531211 -5.91465
thorax 0.0850191 -0.280856 -6.52529
lowerneck -6.70429 1.11816 5.91019
upperneck 1.11429 0.901485 3.34412
head 1.49057 0.555598 0.0795096
lclavicle -9.23623e-16 -1.85015e-14 -1.73055e-32
lhumerus -58.3558 -45.2198 114.798
lradius 55.0946 -0 0
lwrist 25.1756 0 0
lhand 37.2966 24.5229 -3.58111e-07
lfingers 7.12502 -0 0
lthumb 60.1189 38.1776 -3.26207e-07
rclavicle -9.23623e-16 -1.85015e-14 -1.73055e-32
rhumerus 3.669 -24.9412 -0.142715
rradius 27.9819 -0 0
rwrist -11.2137 0 0
rhand -31.403 -44.4853 0.000909318
rfingers 7.12502 -0 0
rthumb -4.67226 -74.414 0.000871404
989
root 1.1189 15.1536 32.491 5.32491 -4.54812 4.06342
lfemur 8.68131 1.63769 5.22815
ltibia 2.9711e-14 -0 0
lfoot -30.1099 -11.6458 -2.69564e-05
ltoes -33.9292 0 0
rfemur -32.8167 -15.5395 -6.23726
rtibia 50.7746 -0 0
rfoot -22.5683 4.99982 5.50494e-06
rtoes -41.9195 0 0
lowerback -1.55214 -0.389254 0.660052
upperback -0.698444 -0.520678 -5.91647
thorax 0.0901344 -0.275337 -6.51962
lowerneck -6.71719 1.11203 5.92204
upperneck 1.12983 0.890408 3.35028
head 1.49783 0.550966 0.0791412
lclavicle -8.33928e-16 -1.83076e-14 -2.24667e-32
lhumerus -58.3644 -45.2562 114.812
lradius 55.1117 -0 0
lwrist 25.1775 0 0
lhand 37.2966 24.5363 -4.64916e-07
lfingers 7.12502 -0 0
lthumb 60.1189 38.1911 -4.23496e-07
rclavicle -8.33928e-16 -1.83076e-14 -2.24667e-32
rhumerus 3.6433 -24.9123 -0.132446
rradius 27.9712 -0 0
rwrist -11.1841 0 0
rhand -31.3837 -44.438 0.00118053
rfingers 7.12502 -0 0
rthumb -4.65363 -74.367 0.0011313
990
root 1.11977 15.1538 32.4901 5.3116 -4.51698 4.04826
lfemur 8.67671 1.60498 5.24352
ltibia 2.83923e-14 -0 0
lfoot -30.1111 -11.6287 -3.27848e-05
ltoes -33.9425 0 0
rfemur -32.7808 -15.5504 -6.23084
rtibia 50.7594 -0 0
rfoot -22.5591 5.00029 6.6952e-06
rtoes -41.925 0 0
lowerback -1.5503 -0.381716 0.647154
upperback -0.693725 -0.510146 -5.91829
thorax 0.0952504 -0.269818 -6.51395
lowerneck -6.73009 1.10591 5.93389
upperneck 1.14537 0.87933 3.35643
head 1.50509 0.546334 0.0787721
lclavicle -7.44232e-16 -1.81136e-14 -2.73244e-32
lhumerus -58.3729 -45.2926 114.826
lradius 55.1289 -0 0
lwrist 25.1793 0 0
lhand 37.2966 24.5497 -5.65439e-07
lfingers 7.12502 -0 0
lthumb 60.1189 38.2045 -5.15064e-07
rclavicle -7.44232e-16 -1.81136e-14 -2.73244e-32
rhumerus 3.61761 -24.8834 -0.122193
rradius 27.9605 -0 0
rwrist -11.1544 0 0
rhand -31.3644 -44.3906 0.00143578
rfingers 7.12502 -0 0
rthumb -4.63499 -74.32 0.00137592
991
root 1.12064 15.1539 32.4891 5.29827 -4.48586 4.03309
lfemur 8.6721 1.57228 5.2589
ltibia 2.70735e-14 -0 0
lfoot -30.1123 -11.6116 -3.8249e-05
ltoes -33.9558 0 0
rfemur -32.745 -15.5614 -6.22442
rtibia 50.7442 -0 0
rfoot -22.5499 5.00075 7.81107e-06
rtoes -41.9306 0 0
lowerback -1.54846 -0.374178 0.634255
upperback -0.689008 -0.499613 -5.92012
thorax 0.100367 -0.2643 -6.50829
lowerneck -6.74299 1.09979 5.94574
upperneck 1.16092 0.868249 3.36259
head 1.51235 0.541702 0.0784025
lclavicle -6.54536e-16 -1.79197e-14 -3.18785e-32
lhumerus -58.3815 -45.329 114.84
lradius 55.146 -0 0
lwrist 25.1812 0 0
lhand 37.2965 24.5631 -6.59679e-07
lfingers 7.12502 -0 0
lthumb 60.1189 38.218 -6.00908e-07
rclavicle -6.54536e-16 -1.79197e-14 -3.18785e-32
rhumerus 3.59194 -24.8544 -0.111957
rradius 27.9499 -0 0
rwrist -11.1247 0 0
rhand -31.3451 -44.3432 0.00167509
rfingers 7.12502 -0 0
rthumb -4.61636 -74.273 0.00160525
992
root 1.12151 15.1541 32.4882 5.28494 -4.45473 4.01792
lfemur 8.66748 1.53958 5.27428
ltibia 2.57547e-14 -0 0
lfoot -30.1135 -11.5945 -4.33489e-05
ltoes -33.969 0 0
rfemur -32.7091 -15.5723 -6.218
rtibia 50.7291 -0 0
rfoot -22.5407 5.00121 8.85255e-06
rtoes -41.9361 0 0
lowerback -1.54662 -0.366639 0.621357
upperback -0.68429 -0.48908 -5.92193
thorax 0.105484 -0.258782 -6.50262
lowerneck -6.75589 1.09367 5.9576
upperneck 1.17646 0.857168 3.36873
head 1.51962 0.53707 0.0780322
lclavicle -5.64841e-16 -1.77257e-14 -3.61289e-32
lhumerus -58.3902 -45.3654 114.854
lradius 55.1632 -0 0
lwrist 25.1831 0 0
lhand 37.2965 24.5765 -7.47637e-07
lfingers 7.12502 -0 0
lthumb 60.1188 38.2314 -6.81029e-07
rclavicle -5.64841e-16 -1.77257e-14 -3.61289e-32
rhumerus 3.56627 -24.8255 -0.101738
rradius 27.9392 -0 0
rwrist -11.095 0 0
rhand -31.3258 -44.2959 0.00189845
rfingers 7.12502 -0 0
rthumb -4.59772 -74.226 0.00181929
993
root 1.12238 15.1542 32.4872 5.27161 -4.42361 4.00274
lfemur 8.66286 1.50688 5.28967
ltibia 2.4436e-14 -0 0
lfoot -30.1148 -11.5774 -4.80845e-05
ltoes -33.9823 0 0
rfemur -32.6732 -15.5833 -6.2116
rtibia 50.7139 -0 0
rfoot -22.5315 5.00168 9.81963e-06
rtoes -41.9417 0 0
lowerback -1.54478 -0.3591 0.608459
upperback -0.679573 -0.478547 -5.92375
thorax 0.110601 -0.253265 -6.49695
lowerneck -6.76879 1.08756 5.96946
upperneck 1.19199 0.846084 3.37488
head 1.52688 0.532438 0.0776614
lclavicle -4.75145e-16 -1.75318e-14 -4.00758e-32
lhumerus -58.3988 -45.4018 114.868
lradius 55.1803 -0 0
lwrist 25.1849 0 0
lhand 37.2965 24.5899 -8.29312e-07
lfingers 7.12502 -0 0
lthumb 60.1188 38.2449 -7.55427e-07
rclavicle -4.75145e-16 -1.75318e-14 -4.00758e-32
rhumerus 3.54062 -24.7966 -0.0915348
rradius 27.9285 -0 0
rwrist -11.0653 0 0
rhand -31.3065 -44.2485 0.00210585
rfingers 7.12502 -0 0
rthumb -4.57908 -74.179 0.00201805
994
root 1.12325 15.1544 32.4863 5.25826 -4.39249 3.98755
lfemur 8.65822 1.47418 5.30506
ltibia 2.31172e-14 -0 0
lfoot -30.116 -11.5603 -5.24558e-05
ltoes -33.9955 0 0
rfemur -32.6374 -15.5942 -6.2052
rtibia 50.6987 -0 0
rfoot -22.5223 5.00214 1.07123e-05
rtoes -41.9473 0 0
lowerback -1.54295 -0.35156 0.595562
upperback -0.674856 -0.468014 -5.92557
thorax 0.115719 -0.247748 -6.49128
lowerneck -6.7817 1.08144 5.98131
upperneck 1.20753 0.834999 3.38102
head 1.53414 0.527806 0.07729
lclavicle -3.8545e-16 -1.73379e-14 -4.37191e-32
lhumerus -58.4075 -45.4382 114.882
lradius 55.1975 -0 0
lwrist 25.1868 0 0
lhand 37.2965 24.6034 -9.04704e-07
lfingers 7.12502 -0 0
lthumb 60.1188 38.2583 -8.24103e-07
rclavicle -3.8545e-16 -1.73379e-14 -4.37191e-32
rhumerus 3.51498 -24.7677 -0.0813487
rradius 27.9178 -0 0
rwrist -11.0356 0 0
rhand -31.2872 -44.2012 0.0022973
rfingers 7.12502 -0 0
rthumb -4.56045 -74.132 0.00220152
995
root 1.12412 15.1545 32.4854 5.24491 -4.36137 3.97236
lfemur 8.65358 1.44149 5.32045
ltibia 2.17984e-14 -0 0
lfoot -30.1172 -11.5432 -5.64629e-05
ltoes -34.0088 0 0
rfemur -32.6015 -15.6052 -6.1988
rtibia 50.6835 -0 0
rfoot -22.5131 5.0026 1.15306e-05
rtoes -41.9528 0 0
lowerback -1.54112 -0.34402 0.582664
upperback -0.67014 -0.457481 -5.92739
thorax 0.120838 -0.242232 -6.48561
lowerneck -6.7946 1.07533 5.99317
upperneck 1.22307 0.823912 3.38716
head 1.54141 0.523174 0.076918
lclavicle -2.95754e-16 -1.71439e-14 -4.70587e-32
lhumerus -58.4161 -45.4745 114.896
lradius 55.2146 -0 0
lwrist 25.1887 0 0
lhand 37.2964 24.6168 -9.73814e-07
lfingers 7.12502 -0 0
lthumb 60.1188 38.2717 -8.87055e-07
rclavicle -2.95754e-16 -1.71439e-14 -4.70587e-32
rhumerus 3.48934 -24.7387 -0.0711792
rradius 27.9071 -0 0
rwrist -11.0059 0 0
rhand -31.2679 -44.1538 0.0024728
rfingers 7.12502 -0 0
rthumb -4.54181 -74.085 0.0023697
996
root 1.125 15.1547 32.4844 5.23155 -4.33026 3.95716
lfemur 8.64892 1.40879 5.33584
ltibia 2.04797e-14 -0 0
lfoot -30.1184 -11.526 -6.01057e-05
ltoes -34.022 0 0
rfemur -32.5657 -15.6161 -6.19241
rtibia 50.6683 -0 0
rfoot -22.5039 5.00306 1.22745e-05
rtoes -41.9584 0 0
lowerback -1.53929 -0.33648 0.569767
upperback -0.665423 -0.446947 -5.9292
thorax 0.125957 -0.236716 -6.47995
lowerneck -6.80751 1.06923 6.00504
upperneck 1.2386 0.812823 3.3933
head 1.54867 0.518542 0.0765454
lclavicle -2.06058e-16 -1.695e-14 -5.00948e-32
lhumerus -58.4248 -45.5109 114.91
lradius 55.2318 -0 0
lwrist 25.1906 0 0
lhand 37.2964 24.6302 -1.03664e-06
lfingers 7.12502 -0 0
lthumb 60.1187 38.2852 -9.44285e-07
rclavicle -2.06058e-16 -1.695e-14 -5.00948e-32
rhumerus 3.46373 -24.7098 -0.0610263
rradius 27.8964 -0 0
rwrist -10.9762 0 0
rhand -31.2486 -44.1064 0.00263235
rfingers 7.12502 -0 0
rthumb -4.52317 -74.038 0.00252259
